<svg xmlns="http://www.w3.org/2000/svg" width="216" height="216" viewBox="0 0 216 216">
  <g>
    <rect width="216" height="216" rx="44" fill="#2a1f3d"/>
    <g>
      <path d="M154.31,166.6,167,198H142a127.81,127.81,0,0,1-11.59-26.11c-3.59-11.2-8.84-28.79-15.58-38.42L105,124l17-16s4.87,2.13,11,8C141.44,124.07,150.12,152.91,154.31,166.6Z" fill="#7a9ebf"/>
      <path d="M85,125.2V198H61V124.8s4,3.2,11.8,3.45C82,128.54,85,125.2,85,125.2Z" fill="#7a5020"/>
      <path d="M47,101C47,81.9,61,75,61,75s-8.77,21.24,8.14,30.82c3.86,2.18,8,.81,16.31-4.21,5.56-3.35,20.46.33,20.55.39s-8,11-12,15c-3,3-7,12-21,12C55,129,47,117,47,101Z" fill="#4e7a9e"/>
      <path d="M84,18V91c0,8.51,3,10,3,10s-8,5-11,6c-1,.32-16-8-16-14.49V18Z" fill="#e8c98a"/>
      <path d="M85,126s9.24-12.61,17.32-19.66C105,104,104,100,104,100l21-3a28.25,28.25,0,0,1-3.11,15.47C120.13,115.68,111,129,98,129,88,129,85,126,85,126Z" fill="#d4a85a"/>
      <path d="M128,63.22C137,49,145,18,145,18h22s-11,38-21,56c-4.34,7.82-6,13-17.75,21.69C117.7,103.5,107.69,101.32,104,101c-5-.44-27-6-27-6L89,77s12.61,3.69,17,3.79C116,81,124.11,69.31,128,63.22Z" fill="#2e5470"/>
      <path d="M77,63c20-6,35,2,42,12-2,2-7.08,5.37-11,6-2.3.37-17-3.2-17-3.2S86.14,81,85,89a113.09,113.09,0,0,0-1,14s-7.92,6.77-16.23,4.14C61,105,46,76,77,63Z" fill="#b07830"/>
    </g>
  </g>
</svg>
